<svg width="97" height="88" viewBox="0 0 97 88" fill="none" xmlns="http://www.w3.org/2000/svg">
<g clip-path="url(#clip0_221_684)">
<path d="M93.9085 32.6733H64.6264C60.0792 28.9766 54.3804 26.9563 48.5 26.9563C42.6196 26.9563 36.9208 28.9766 32.3735 32.6733H3.09154V18.5429H93.9085V32.6733ZM33.1629 72.2929C32.8379 72.8598 32.3838 73.3437 31.8368 73.7058C31.2898 74.0679 30.665 74.2982 30.0123 74.3784C29.3596 74.4586 28.697 74.3865 28.0774 74.1677C27.4578 73.949 26.8983 73.5897 26.4436 73.1185C25.9889 72.6474 25.6516 72.0774 25.4585 71.454C25.2654 70.8306 25.2219 70.1711 25.3315 69.5281C25.4411 68.8851 25.7007 68.2764 26.0897 67.7506C26.4786 67.2247 26.9862 66.7963 27.5718 66.4994C29.1265 68.7251 31.0243 70.6947 33.1958 72.3364L33.1629 72.2929ZM29.5122 63.8472C26.6093 59.1844 25.5496 53.6214 26.5372 48.2301C27.5249 42.8387 30.4899 38.0005 34.8612 34.6476C39.2324 31.2948 44.7005 29.6645 50.2119 30.0709C55.7233 30.4773 60.888 32.8916 64.7109 36.8488C68.5338 40.8059 70.7445 46.0257 70.9169 51.5026C71.0892 56.9795 69.2112 62.3259 65.6446 66.5116C62.0779 70.6973 57.0751 73.4263 51.6 74.1726C46.1249 74.919 40.5649 73.6299 35.9913 70.5538C33.3942 68.7896 31.1953 66.5095 29.5341 63.8581L29.5122 63.8472ZM93.9085 84.9777H3.09154V35.7385H29.2162C25.8963 39.5585 23.8082 44.278 23.2219 49.2869C22.6356 54.2959 23.578 59.364 25.9273 63.8363C24.5333 64.6323 23.443 65.8618 22.8251 67.3344C22.2073 68.8069 22.0964 70.4404 22.5098 71.9818C22.9231 73.5232 23.8375 74.8864 25.1113 75.8603C26.3852 76.8342 27.9474 77.3645 29.556 77.369C30.7918 77.3615 32.0057 77.046 33.0862 76.4515C34.1667 75.857 35.079 75.0025 35.7392 73.9668C40.9377 76.9529 47.0345 78.018 52.9494 76.9734C58.8642 75.9287 64.2151 72.8418 68.0539 68.2596C71.8928 63.6774 73.9716 57.8958 73.9222 51.9392C73.8727 45.9826 71.6982 40.2357 67.7838 35.7168H93.9085V84.9777ZM12.9801 10.4124H21.4216V15.5211H12.9801V10.4124ZM37.4384 3.06461H59.5178L61.5568 15.5211H35.476L37.4384 3.06461ZM95.4323 15.5211H64.6264L62.3791 1.28201C62.3196 0.922887 62.1341 0.596138 61.8553 0.359463C61.5764 0.122789 61.2222 -0.00858968 60.8552 -0.0114746H36.1448C35.7771 -0.0107684 35.4218 0.119832 35.1425 0.356892C34.8632 0.593953 34.6783 0.921953 34.6209 1.28201L32.3516 15.5103H24.5021V8.8907C24.5036 8.68853 24.4647 8.48807 24.3876 8.30087C24.3106 8.11367 24.197 7.94342 24.0533 7.79995C23.9096 7.65648 23.7387 7.54262 23.5505 7.46492C23.3622 7.38722 23.1603 7.34722 22.9564 7.34723H11.4343C11.2304 7.34722 11.0285 7.38722 10.8402 7.46492C10.652 7.54262 10.4811 7.65648 10.3374 7.79995C10.1937 7.94342 10.0801 8.11367 10.0031 8.30087C9.92602 8.48807 9.8871 8.68853 9.88855 8.8907V15.5211H1.54576C1.1358 15.5211 0.742635 15.6826 0.452746 15.97C0.162857 16.2575 0 16.6473 0 17.0537V86.4777C0 86.8841 0.162857 87.274 0.452746 87.5614C0.742635 87.8488 1.1358 88.0103 1.54576 88.0103H95.4542C95.8642 88.0103 96.2574 87.8488 96.5472 87.5614C96.8371 87.274 97 86.8841 97 86.4777V17.0537C97 16.6473 96.8371 16.2575 96.5472 15.97C96.2574 15.6826 95.8642 15.5211 95.4542 15.5211" fill="#0A0935"/>
<path d="M48.5 66.1522C45.7109 66.1436 42.9869 65.3156 40.6721 63.7728C38.3574 62.2299 36.5558 60.0415 35.495 57.4839C34.4341 54.9264 34.1616 52.1145 34.7119 49.4034C35.2621 46.6924 36.6104 44.2038 38.5864 42.2522C40.5625 40.3006 43.0776 38.9734 45.8141 38.4384C48.5505 37.9033 51.3855 38.1844 53.9609 39.2462C56.5363 40.3079 58.7365 42.1026 60.2836 44.4036C61.8307 46.7046 62.6553 49.4086 62.6531 52.174C62.6473 55.8814 61.1586 59.4351 58.5135 62.0556C55.8685 64.6761 52.2831 66.1493 48.5439 66.1522H48.5ZM48.5439 35.1196C45.1414 35.1175 41.8147 36.1159 38.9846 37.9885C36.1545 39.8612 33.9481 42.524 32.6445 45.64C31.341 48.7561 30.9988 52.1855 31.6612 55.4945C32.3237 58.8034 33.9611 61.8432 36.3662 64.2294C38.7713 66.6156 41.8362 68.2409 45.1731 68.8998C48.5101 69.5588 51.9691 69.2216 55.1128 67.9312C58.2565 66.6407 60.9436 64.4548 62.8341 61.65C64.7246 58.8452 65.7337 55.5475 65.7337 52.174C65.7279 47.6545 63.9153 43.3217 60.6932 40.1249C57.471 36.9282 53.1021 35.1283 48.5439 35.1196Z" fill="#0A0935"/>
<path d="M48.4999 41.25C48.0899 41.25 47.6968 41.4115 47.4069 41.6989C47.117 41.9863 46.9541 42.3761 46.9541 42.7826C46.9541 43.1891 47.117 43.5789 47.4069 43.8664C47.6968 44.1538 48.0899 44.3152 48.4999 44.3152C50.602 44.3152 52.6181 45.1432 54.1046 46.617C55.591 48.0908 56.4261 50.0897 56.4261 52.1739C56.4228 52.8675 56.3307 53.5577 56.152 54.2283C56.0992 54.4224 56.0856 54.625 56.1122 54.8244C56.1388 55.0237 56.205 55.2159 56.3069 55.3897C56.4089 55.5636 56.5445 55.7157 56.7061 55.8372C56.8677 55.9587 57.052 56.0473 57.2483 56.0978C57.3799 56.1365 57.5167 56.1548 57.6539 56.1522C57.9875 56.1548 58.3129 56.0503 58.5816 55.8544C58.8503 55.6585 59.0479 55.3816 59.1449 55.0652C59.5975 53.4454 59.6652 51.7436 59.3424 50.0935C59.0197 48.4434 58.3154 46.89 57.2848 45.5553C56.2543 44.2207 54.9256 43.1412 53.4032 42.4017C51.8807 41.6622 50.2061 41.2829 48.5109 41.2935" fill="#0A0935"/>
<path d="M86.3878 40.0217C85.9779 40.0217 85.5847 40.1832 85.2948 40.4706C85.0049 40.758 84.842 41.1478 84.842 41.5543V78.3043C84.842 78.7108 85.0049 79.1006 85.2948 79.388C85.5847 79.6755 85.9779 79.8369 86.3878 79.8369C86.7978 79.8369 87.191 79.6755 87.4809 79.388C87.7708 79.1006 87.9336 78.7108 87.9336 78.3043V41.5543C87.9336 41.1478 87.7708 40.758 87.4809 40.4706C87.191 40.1832 86.7978 40.0217 86.3878 40.0217Z" fill="#0A0935"/>
<path d="M86.3878 20.4241C85.9779 20.4241 85.5847 20.5855 85.2948 20.873C85.0049 21.1604 84.842 21.5502 84.842 21.9567V28.4784C84.842 28.8849 85.0049 29.2747 85.2948 29.5621C85.5847 29.8496 85.9779 30.011 86.3878 30.011C86.7978 30.011 87.191 29.8496 87.4809 29.5621C87.7708 29.2747 87.9336 28.8849 87.9336 28.4784V21.9567C87.9336 21.5502 87.7708 21.1604 87.4809 20.873C87.191 20.5855 86.7978 20.4241 86.3878 20.4241Z" fill="#0A0935"/>
</g>
<defs>
<clipPath id="clip0_221_684">
<rect width="97" height="88" fill="white"/>
</clipPath>
</defs>
</svg>
