<svg width="79" height="88" viewBox="0 0 79 88" fill="none" xmlns="http://www.w3.org/2000/svg">
<path d="M76.3773 50.1125V57.6966H68.7308L76.3773 50.1125ZM9.14047 48.2716H16.7207L9.11835 55.8447L9.14047 48.2716ZM20.4499 48.2716H35.9976L26.5473 57.6966H10.9885L20.4499 48.2716ZM39.7158 48.2716H55.2635L45.8021 57.6966H37.746V60.3091H76.3552V85.3874H9.14047V65.5453H27.2665V62.9217H9.14047V60.3091H34.2603V57.6966H30.2544L39.7158 48.2716ZM58.9706 48.2716H74.5293L65.0679 57.6966H49.5092L58.9706 48.2716ZM3.58537 37.0166L10.1696 33.2356L7.38099 43.5756L3.58537 37.0166ZM13.3898 31.3837L26.8571 23.6673L23.3603 36.5757L9.88191 44.2921L13.3898 31.3837ZM30.0773 21.8153L43.5557 14.099L40.0809 26.9633L26.6026 34.6797L30.0773 21.8153ZM62.7773 5.18101L66.5729 11.7399L59.9886 15.521L62.7773 5.18101ZM46.7648 12.236L60.2431 4.51959L56.7684 17.3839L43.2901 25.1003L46.7648 12.236ZM62.8105 0L0 36.0576L6.51784 47.3125V88H79V45.648H12.7259L70.1583 12.699L62.8105 0Z" fill="#0A092D"/>
</svg>
