<svg width="787" height="700" viewBox="0 0 787 700" fill="none" xmlns="http://www.w3.org/2000/svg">
<path d="M439.06 566.436C420.079 579.17 400.617 581.653 381.635 566.996C362.814 552.5 361.052 532.637 368.34 508.289C343.672 513.656 321.487 513.495 306.91 491.55C294.416 472.729 297.459 454.308 309.793 436.528C311.315 435.006 312.837 433.565 314.359 432.043C323.169 425.716 333.42 419.549 343.672 421.631C362.413 425.395 358.969 416.746 360.01 403.531C361.372 385.27 359.45 377.821 339.027 380.785C331.578 381.826 323.008 375.258 314.999 372.135C312.837 369.972 310.674 367.81 308.512 365.728C297.7 347.547 294.336 329.046 307.471 310.705C322.047 290.362 342.631 288.6 367.94 295.328C361.532 270.419 362.493 248.554 384.358 234.058C403.099 221.724 421.52 224.767 439.14 237.021C440.662 238.543 442.104 240.065 443.625 241.587C447.229 250.477 454.998 260.008 453.637 268.017C450.033 289.641 460.284 285.717 475.261 286.918C493.282 288.36 494.804 283.474 494.323 268.097C494.003 259.367 500.89 250.477 504.495 241.587C506.096 239.985 507.698 238.303 509.3 236.701C528.202 223.406 547.664 221.163 566.645 235.58C585.547 249.996 587.789 269.698 580.501 293.886C604.528 289.721 626.954 288.68 641.69 310.865C654.185 329.687 651.301 348.108 639.448 366.048C637.606 367.89 635.764 369.652 634.002 371.494C625.032 375.018 615.661 382.226 607.171 381.265C588.83 379.183 589.071 385.67 589.311 401.208C589.551 416.265 588.67 423.473 607.251 421.391C615.741 420.43 625.112 427.718 634.002 431.242C635.844 433.084 637.686 434.926 639.608 436.768C652.262 455.67 654.745 475.132 640.249 493.953C625.832 512.615 606.45 515.578 582.023 507.569C586.988 532.717 586.188 555.623 562.961 570.04C545.101 581.092 527.481 578.049 510.501 567.237C508.179 564.914 505.936 562.591 503.614 560.349C494.643 547.053 492.321 532.237 494.804 516.779C469.255 513.896 448.03 514.617 450.673 548.495C450.994 552.58 446.509 556.985 444.186 561.23C442.424 563.072 440.742 564.754 439.06 566.436ZM561.439 488.507C546.783 479.617 577.538 451.665 544.86 451.505C528.202 451.425 524.277 457.111 524.437 472.569C524.677 505.006 552.229 474.331 561.439 488.507ZM388.042 488.908C397.092 476.654 429.69 505.727 424.003 465.841C419.438 434.125 399.335 459.114 388.203 450.945C392.768 464.16 387.962 475.212 388.042 488.908ZM562.561 315.03C523.877 319.035 524.838 319.195 523.716 328.165C519.952 359.32 543.499 348.748 561.76 353.634C556.313 339.137 560.558 327.284 562.561 315.03ZM387.722 313.348C389.884 327.444 391.246 339.538 389.083 353.153C399.736 343.622 421.12 367.169 424.724 335.774C429.129 296.93 396.372 327.765 387.722 313.348ZM459.483 399.126C460.124 407.375 453.877 419.228 470.776 415.865C479.346 414.183 490.399 420.27 488.957 402.489C487.996 390.396 487.355 385.67 473.499 386.551C463.088 387.192 455.639 386.151 459.483 399.126Z" fill="#FE5A4F"/>
<path d="M443.784 241.587C442.262 240.065 440.821 238.543 439.299 237.021C439.059 235.099 439.299 232.937 438.578 231.255C428.727 209.55 428.407 189.047 448.59 173.189C465.008 160.294 483.509 160.214 500.008 173.029C520.271 188.727 520.031 209.31 510.42 231.015C509.699 232.697 509.859 234.859 509.619 236.781C508.017 238.383 506.415 240.065 504.813 241.667C484.39 249.916 464.047 249.756 443.784 241.587Z" fill="#FE5A4F"/>
<path d="M639.606 436.847C637.764 435.005 635.922 433.163 634 431.321C625.43 411.379 625.591 391.516 634 371.573C635.842 369.731 637.684 367.969 639.446 366.127C645.934 364.125 652.261 361.642 658.908 360.36C677.73 356.756 693.908 361.322 704.72 378.061C714.572 393.358 714.572 409.456 704.801 424.754C694.068 441.493 677.81 446.138 658.989 442.534C652.421 441.413 646.094 438.85 639.606 436.847Z" fill="#FE5A4F"/>
<path d="M503.533 560.428C505.856 562.751 508.098 565.073 510.421 567.316C511.702 571.961 512.984 576.687 514.185 581.332C519.471 601.195 516.268 618.895 498.648 631.149C482.469 642.361 465.01 642.121 449.071 630.508C431.772 617.853 428.969 600.073 434.815 580.371C436.177 575.725 437.699 571.08 439.06 566.435C440.742 564.753 442.424 562.991 444.106 561.309C463.808 552.98 483.671 553.22 503.533 560.428Z" fill="#FE5A4F"/>
<path d="M314.438 432.043C312.916 433.565 311.394 435.006 309.873 436.528C286.086 444.137 262.219 450.944 244.518 425.315C234.187 410.418 233.947 394.16 243.798 378.782C260.697 352.593 284.644 358.359 308.671 365.567C310.834 367.73 312.996 369.892 315.159 371.975C322.928 392.158 322.207 412.18 314.438 432.043Z" fill="#FE5A4F"/>
<path d="M710.167 530.793C710.648 552.818 690.786 572.681 668.761 572.281C647.857 571.88 629.196 553.299 628.795 532.315C628.315 510.21 648.097 490.428 670.202 490.828C691.026 491.309 709.687 509.89 710.167 530.793Z" fill="#FE5A4F"/>
<path d="M279.518 571.961C257.733 572.201 238.111 552.258 238.832 530.554C239.472 509.81 258.053 491.55 278.797 491.309C300.582 491.069 320.204 511.012 319.483 532.716C318.922 553.46 300.261 571.721 279.518 571.961Z" fill="#FE5A4F"/>
<path d="M384.678 595.188C385.559 616.973 366.097 637.076 344.152 637.076C323.408 637.076 304.587 618.815 303.706 598.071C302.825 576.287 322.287 556.184 344.232 556.184C365.055 556.184 383.877 574.364 384.678 595.188Z" fill="#FE5A4F"/>
<path d="M667.159 311.986C645.054 310.625 626.793 289.401 629.036 267.696C631.198 246.712 651.061 229.573 671.644 230.854C693.749 232.216 712.01 253.52 709.768 275.144C707.685 296.128 687.823 313.268 667.159 311.986Z" fill="#FE5A4F"/>
<path d="M277.756 231.095C298.259 230.294 317.722 247.753 319.404 268.577C321.166 290.122 302.504 310.945 280.559 311.826C258.855 312.707 238.752 293.325 238.832 271.46C238.912 250.717 257.013 231.896 277.756 231.095Z" fill="#FE5A4F"/>
<path d="M644.974 206.586C644.894 228.611 624.631 247.993 602.766 246.951C581.863 245.99 563.762 227.089 563.842 206.185C563.922 184.16 584.185 164.778 606.05 165.819C626.954 166.78 645.054 185.762 644.974 206.586Z" fill="#FE5A4F"/>
<path d="M344.392 166.06C366.257 166.14 385.559 186.323 384.518 208.027C383.556 228.851 364.655 246.871 343.991 246.711C322.126 246.631 302.825 226.448 303.786 204.743C304.827 184 323.728 165.899 344.392 166.06Z" fill="#FE5A4F"/>
<path d="M644.974 596.148C645.294 618.173 625.352 637.796 603.407 637.235C582.503 636.674 564.082 618.013 563.842 597.11C563.521 575.085 583.384 555.462 605.409 556.103C626.313 556.664 644.654 575.245 644.974 596.148Z" fill="#FE5A4F"/>
<path d="M371.704 659.34C374.987 636.434 387.962 624.18 411.028 624.421C433.053 624.661 449.151 643.402 446.348 665.507C443.385 688.654 428.969 700.267 406.143 698.665C382.836 696.983 372.344 681.926 371.704 659.34Z" fill="#FE5A4F"/>
<path d="M734.435 504.365C711.528 502.363 698.153 490.429 697.032 467.203C695.991 445.098 713.931 427.478 736.036 429.08C759.103 430.762 772.237 444.297 771.757 467.363C771.356 490.59 757.26 502.443 734.435 504.365Z" fill="#FE5A4F"/>
<path d="M251.486 466.161C249.724 489.067 238.111 503.163 214.564 503.323C191.258 503.483 177.642 490.348 177.322 466.962C177.082 443.655 190.297 430.12 213.603 429.719C237.15 429.399 249.244 443.175 251.486 466.161Z" fill="#FE5A4F"/>
<path d="M577.215 661.263C575.534 683.929 563.92 698.265 540.694 698.986C517.708 699.626 503.932 686.812 501.93 663.666C500.008 641.561 517.467 623.38 539.573 624.181C562.799 625.062 574.893 638.277 577.215 661.263Z" fill="#FE5A4F"/>
<path d="M733.875 374.297C710.889 371.895 697.754 359.641 697.033 336.414C696.392 314.309 714.653 296.929 736.758 299.012C759.824 301.174 772.639 314.95 771.838 337.936C770.957 361.242 756.54 372.695 733.875 374.297Z" fill="#FE5A4F"/>
<path d="M215.686 299.171C238.592 301.974 251.807 314.628 250.926 337.935C250.045 361.321 235.869 374.056 212.723 373.255C189.336 372.454 176.682 358.278 177.402 335.052C178.123 311.505 192.7 300.372 215.686 299.171Z" fill="#FE5A4F"/>
<path d="M446.909 140.511C444.427 164.939 432.253 178.715 408.786 178.314C385.4 177.914 372.104 164.218 372.425 140.832C372.745 117.445 386.521 104.23 409.827 104.39C433.534 104.551 444.747 119.127 446.909 140.511Z" fill="#FE5A4F"/>
<path d="M576.976 141.793C574.813 164.619 562.8 177.834 539.573 178.635C517.388 179.435 500.249 161.575 502.091 139.39C503.933 116.324 517.548 103.589 540.534 104.23C563.761 104.871 575.294 119.047 576.976 141.793Z" fill="#FE5A4F"/>
<path d="M280.159 695.942C259.736 693.619 246.12 682.887 245.64 662.383C245.239 641.96 258.054 628.665 278.397 628.184C298.82 627.704 312.115 640.598 312.596 660.942C313.237 681.445 299.861 692.578 280.159 695.942Z" fill="#FE5A4F"/>
<path d="M474.861 761.136C454.758 758.734 441.062 748.001 440.582 727.418C440.181 706.915 453.156 693.539 473.499 692.979C494.002 692.498 507.377 705.473 507.938 725.896C508.579 746.64 495.204 757.853 474.861 761.136Z" fill="#FE5A4F"/>
<path d="M801.952 367.249C820.133 370.212 832.547 381.105 833.668 401.528C834.629 420.029 815.487 438.049 797.387 435.567C777.444 432.843 765.751 420.429 765.511 400.006C765.19 382.546 782.971 366.768 801.952 367.249Z" fill="#FE5A4F"/>
<path d="M183.249 401.207C179.965 422.271 168.753 435.406 148.329 434.845C128.066 434.285 115.252 421.069 115.732 400.726C116.213 380.463 129.508 367.729 149.851 368.129C170.354 368.53 180.606 382.466 183.249 401.207Z" fill="#FE5A4F"/>
<path d="M473.819 42.0798C493.842 44.4025 507.458 55.1347 507.778 75.638C508.178 96.0612 495.284 109.356 474.941 109.757C454.517 110.157 441.302 97.2626 440.822 76.9195C440.341 56.4162 453.636 45.2835 473.819 42.0798Z" fill="#FE5A4F"/>
<path d="M313.237 140.832C310.994 160.774 300.342 174.229 279.919 174.71C259.576 175.11 246.361 162.376 245.88 142.113C245.4 121.77 258.214 108.555 278.477 108.074C298.901 107.514 310.033 120.649 313.237 140.832Z" fill="#FE5A4F"/>
<path d="M703.84 662.303C700.476 682.566 689.263 695.941 668.68 695.381C648.256 694.82 635.282 681.445 635.762 660.941C636.323 640.518 649.698 627.544 670.201 628.024C690.785 628.425 701.517 642.2 703.84 662.303Z" fill="#FE5A4F"/>
<path d="M668.919 106.952C689.022 109.355 702.718 120.087 703.198 140.671C703.599 161.174 690.624 174.549 670.201 175.03C649.698 175.51 636.322 162.455 635.842 142.032C635.201 121.449 648.576 110.236 668.919 106.952Z" fill="#FE5A4F"/>
<path d="M213.843 562.511C234.907 565.715 248.042 576.927 247.482 597.351C247.001 617.614 233.786 630.428 213.443 630.028C193.18 629.547 180.446 616.332 180.766 595.989C181.166 575.406 195.022 565.154 213.843 562.511Z" fill="#FE5A4F"/>
<path d="M734.996 240.785C714.893 238.382 701.198 227.57 700.797 206.987C700.397 186.484 713.372 173.108 733.875 172.628C754.378 172.147 767.673 185.202 768.234 205.625C768.714 226.369 755.259 237.582 734.996 240.785Z" fill="#FE5A4F"/>
<path d="M248.202 205.384C245.879 225.807 235.227 239.342 214.804 239.743C194.461 240.143 181.246 227.329 180.765 207.066C180.285 186.723 193.099 173.588 213.362 173.027C233.945 172.466 244.918 185.841 248.202 205.384Z" fill="#FE5A4F"/>
<path d="M769.034 597.35C765.75 617.293 754.778 629.707 734.354 630.668C715.853 631.629 697.913 612.407 700.396 594.226C703.199 574.284 715.693 561.629 736.036 562.671C756.299 563.792 766.871 577.407 769.034 597.35Z" fill="#FE5A4F"/>
<path d="M800.509 240.145C820.452 242.227 831.344 253.2 830.383 273.142C829.342 293.325 816.768 303.417 797.065 302.215C778.564 301.094 768.393 289.641 768.633 271.06C768.873 250.957 780.807 241.186 800.509 240.145Z" fill="#FE5A4F"/>
<path d="M800.35 563.152C779.526 561.229 768.153 550.898 768.473 531.115C768.794 511.333 780.247 500.28 799.949 500.52C819.732 500.761 830.624 512.294 830.624 531.996C830.544 552.179 818.29 561.47 800.35 563.152Z" fill="#FE5A4F"/>
<path d="M147.848 562.591C128.226 560.348 117.494 549.456 118.615 529.674C119.736 509.651 132.23 499.8 151.773 501.081C170.193 502.282 180.045 513.735 179.644 532.076C179.324 552.179 167.39 561.63 147.848 562.591Z" fill="#FE5A4F"/>
<path d="M604.368 45.2026C624.071 46.7244 635.524 56.976 635.123 76.9988C634.643 97.1016 622.789 107.594 603.007 107.033C584.506 106.472 574.014 95.58 573.693 77.0789C573.373 56.9761 584.666 46.7244 604.368 45.2026Z" fill="#FE5A4F"/>
<path d="M151.132 302.454C130.309 301.253 118.535 291.482 118.535 271.459C118.615 251.516 129.908 240.624 149.771 240.864C168.192 241.024 178.844 251.516 179.645 269.937C180.526 290.04 169.233 300.132 151.132 302.454Z" fill="#FE5A4F"/>
<path d="M635.843 726.697C633.52 747.841 622.387 758.653 602.525 757.532C582.342 756.41 572.331 743.676 573.612 723.974C574.814 705.393 586.427 695.461 604.928 695.702C625.351 696.102 634.401 708.516 635.843 726.697Z" fill="#FE5A4F"/>
<path d="M345.274 757.932C324.21 756.17 312.917 745.678 313.558 725.656C314.199 705.553 326.212 695.221 345.995 695.942C364.496 696.663 374.747 707.715 374.988 726.216C375.308 746.64 363.294 756.09 345.274 757.932Z" fill="#FE5A4F"/>
<path d="M375.227 77.5601C372.985 97.1824 362.092 107.915 342.31 106.793C322.287 105.672 312.436 93.1778 313.717 73.6356C314.918 55.2146 326.372 45.3635 344.712 45.7639C364.815 46.0843 374.266 58.0179 375.227 77.5601Z" fill="#FE5A4F"/>
<path d="M84.1762 493.793C67.5973 492.111 56.9452 482.901 57.3456 465.681C57.666 449.983 67.8375 439.892 83.6155 439.811C100.755 439.731 111.247 450.303 110.927 467.523C110.526 483.141 100.274 491.871 84.1762 493.793Z" fill="#FE5A4F"/>
<path d="M538.532 -16.2266C553.669 -15.1854 564.721 -7.41654 566.243 8.44147C567.845 25.8212 557.834 37.2742 540.774 38.2353C523.555 39.1964 512.582 28.4643 512.342 11.2447C512.102 -4.61331 522.273 -13.6637 538.532 -16.2266Z" fill="#FE5A4F"/>
<path d="M83.2956 309.262C98.2727 310.224 109.165 317.832 110.687 333.61C112.289 350.83 102.437 362.203 85.458 363.164C68.3986 364.045 57.5063 353.633 57.2661 336.413C57.1059 320.635 67.0372 311.665 83.2956 309.262Z" fill="#FE5A4F"/>
<path d="M436.737 10.7629C435.536 26.1404 427.367 36.9528 411.589 38.1542C394.289 39.4356 382.836 29.2641 382.275 12.1246C381.635 -5.09496 392.527 -15.9073 409.827 -15.8272C425.605 -15.667 434.495 -5.33534 436.737 10.7629Z" fill="#FE5A4F"/>
<path d="M799.229 686.571C783.131 685.289 774.161 676.64 774.881 660.141C775.522 645.164 784.572 636.834 799.469 636.994C816.048 637.155 824.698 646.766 824.057 663.104C823.577 678.241 814.286 685.61 799.229 686.571Z" fill="#FE5A4F"/>
<path d="M732.113 51.45C749.573 52.331 759.023 60.1799 758.863 76.7587C758.703 91.6557 750.294 100.386 735.397 100.706C719.058 101.106 710.008 92.2163 709.927 75.8777C710.008 60.7405 719.138 53.4522 732.113 51.45Z" fill="#FE5A4F"/>
<path d="M797.306 116.324C814.766 117.205 824.296 125.134 824.136 141.793C823.976 156.77 815.566 165.58 800.509 165.901C784.091 166.301 774.88 157.331 774.88 140.832C774.88 125.695 784.011 118.247 797.306 116.324Z" fill="#FE5A4F"/>
<path d="M238.591 76.8388C237.149 91.5756 229.381 100.466 214.324 100.386C197.745 100.305 189.095 90.5344 190.136 74.356C191.017 59.4591 200.548 51.6102 215.445 52.2509C230.502 52.8917 237.71 62.1021 238.591 76.8388Z" fill="#FE5A4F"/>
<path d="M150.011 637.074C164.828 638.676 173.558 646.605 173.317 661.822C172.997 678.561 163.066 687.051 146.727 685.85C131.67 684.808 123.981 675.037 124.782 660.06C125.743 644.843 135.114 637.715 150.011 637.074Z" fill="#FE5A4F"/>
<path d="M692.627 10.4431C691.425 23.8984 684.377 33.189 670.922 33.9098C655.945 34.7107 646.575 25.5803 646.735 10.6033C646.895 -2.852 655.785 -11.3417 669.32 -11.5019C683.016 -11.582 690.304 -2.69185 692.627 10.4431Z" fill="#FE5A4F"/>
<path d="M302.183 11.3245C300.261 24.4595 293.133 33.67 279.758 33.75C265.021 33.8301 255.81 24.4595 256.691 9.72275C257.492 -3.33208 266.462 -11.8218 279.998 -11.2612C293.453 -10.7005 300.421 -1.73029 302.183 11.3245Z" fill="#FE5A4F"/>
<path d="M82.3335 573.482C96.6698 575.084 105.96 582.052 106.521 595.347C107.162 610.084 97.9511 619.455 83.2144 619.134C69.9994 618.894 61.5899 609.924 61.5098 596.549C61.4297 582.853 70.8805 576.286 82.3335 573.482Z" fill="#FE5A4F"/>
<path d="M150.011 165.981C133.753 164.219 124.863 156.53 125.023 141.473C125.183 124.894 134.955 116.324 151.213 117.365C166.11 118.326 173.879 127.857 173.238 142.754C172.597 157.971 162.826 164.539 150.011 165.981Z" fill="#FE5A4F"/>
<path d="M106.923 206.987C104.44 220.282 96.9914 229.252 83.2959 228.611C69.8406 228.051 61.2708 219.081 61.7514 205.545C62.312 192.09 71.2022 183.52 84.8176 184.001C98.353 184.561 105.401 193.772 106.923 206.987Z" fill="#FE5A4F"/>
<path d="M36.442 271.379C35.2406 281.39 29.8746 288.278 19.7831 288.438C8.16996 288.679 1.28212 281.551 2.00294 269.937C2.64367 260.006 9.45134 253.839 19.703 254.24C29.9546 254.8 35.1605 261.448 36.442 271.379Z" fill="#FE5A4F"/>
<path d="M38.204 401.608C37.403 413.861 30.7555 420.989 17.941 420.509C6.56803 420.108 0.0807442 413.301 0.000653212 401.928C-0.0794378 389.033 7.20884 382.145 20.0234 382.546C31.4764 382.866 37.323 389.834 38.204 401.608Z" fill="#FE5A4F"/>
<path d="M36.4421 532.075C34.9204 542.006 29.4743 548.814 19.3028 548.654C7.6896 548.493 0.881833 541.205 2.00311 529.672C2.9642 519.901 9.93203 513.654 20.1837 514.455C30.2751 515.256 35.5611 521.983 36.4421 532.075Z" fill="#FE5A4F"/>
</svg>
