<svg width="46" height="88" viewBox="0 0 46 88" fill="none" xmlns="http://www.w3.org/2000/svg">
<path d="M39.037 11.0644C40.6581 16.0214 42.2248 20.9892 43.8242 25.9462C44.5415 27.8623 44.5918 29.9601 43.9672 31.9076C43.3425 33.8551 42.0785 35.5411 40.3752 36.6989C36.2191 39.81 32.0449 42.9031 27.8525 45.9784C26.7011 46.7682 25.7682 47.8305 25.1391 49.0683C24.51 50.3061 24.2048 51.68 24.2513 53.0645C24.2513 60.344 24.2513 67.6343 24.2513 74.9139C24.134 76.1542 24.4561 77.3962 25.1625 78.4278C25.869 79.4594 26.9159 80.2165 28.1245 80.5698C30.1373 81.3655 32.1501 82.172 34.1737 82.9569C34.5722 83.0182 34.9389 83.2078 35.2169 83.4965C35.4949 83.7851 35.6685 84.1565 35.7107 84.5528C35.7529 84.9491 35.6614 85.3481 35.4503 85.6876C35.2392 86.0272 34.9204 86.2882 34.5436 86.43H11.4457C11.0968 86.3047 10.7961 86.075 10.5856 85.7728C10.3751 85.4706 10.2651 85.1111 10.2711 84.7442C10.2771 84.3774 10.3987 84.0215 10.619 83.7262C10.8393 83.4309 11.1473 83.2108 11.5001 83.0967C13.6761 82.2222 15.8738 81.3476 18.0933 80.4731C19.192 80.1103 20.1416 79.4045 20.799 78.4619C21.4564 77.5193 21.786 76.3911 21.7381 75.2472C21.7381 67.7419 21.7381 60.2365 21.7381 52.7311C21.754 51.427 21.4471 50.1388 20.8441 48.9787C20.2411 47.8186 19.3602 46.8219 18.2783 46.0752C12.2291 40.4085 -1.30547 36.0429 2.19784 25.9139C4.56239 18.5734 6.92697 11.2257 9.29152 3.87089C9.42415 3.1887 9.81882 2.58375 10.3928 2.18284C10.9668 1.78192 11.6756 1.61618 12.3705 1.72035H33.6406C36.1974 1.5053 36.6979 3.69885 37.2636 5.67734L39.037 11.0644Z" stroke="#0A0B34" stroke-width="3" stroke-miterlimit="10"/>
<path d="M1.80615 27.344C1.80615 27.344 22.1841 26.0859 26.0247 25.1074C29.9414 24.344 36.1538 23.3548 39.6789 24.0322C41.1207 24.5301 42.5092 25.1676 43.8241 25.9354" stroke="#0A0B34" stroke-width="3" stroke-miterlimit="10"/>
<path d="M34.4458 12.1721L32.9771 6.65601" stroke="#0A0B34" stroke-width="3" stroke-miterlimit="10" stroke-linecap="round"/>
</svg>
