<svg width="211" height="195" viewBox="0 0 211 195" fill="none" xmlns="http://www.w3.org/2000/svg">
<path d="M153.174 8.15997L147.116 30.5482L124.69 24.605L118.633 46.9931L96.2154 41.045L90.8731 60.7917L71.092 55.55L65.0346 77.9381L42.6085 71.995L36.551 94.3831L14.1335 88.435L8.12 110.659L10.6062 111.325L15.9485 91.5786L38.366 97.5268L44.4235 75.1386L66.8496 81.0818L72.907 58.6936L92.6931 63.944L98.0304 44.1886L120.448 50.1368L126.505 27.7487L148.931 33.6918L154.989 11.3036L174.77 16.5454L175.427 14.0642L153.174 8.15997Z" fill="#E4F427"/>
<path d="M160.23 24.1182L154.173 46.5064L131.746 40.5632L125.689 62.9514L103.272 57.0032L97.9292 76.75L78.1482 71.5082L72.0907 93.8964L49.6646 87.9532L43.6071 110.341L21.1897 104.393L15.1762 126.617L17.6623 127.284L23.0047 107.537L45.4221 113.485L51.4796 91.0969L73.9057 97.0401L79.9632 74.6519L99.7492 79.9023L105.087 60.1469L127.504 66.0951L133.561 43.7069L155.988 49.6501L162.045 27.2619L181.826 32.5036L182.484 30.0225L160.23 24.1182Z" fill="#E4F427"/>
<path d="M167.23 41.1182L161.173 63.5064L138.746 57.5632L132.689 79.9514L110.272 74.0032L104.929 93.75L85.1482 88.5082L79.0907 110.896L56.6646 104.953L50.6071 127.341L28.1897 121.393L22.1762 143.617L24.6623 144.284L30.0047 124.537L52.4221 130.485L58.4796 108.097L80.9057 114.04L86.9632 91.6519L106.749 96.9023L112.087 77.1469L134.504 83.0951L140.561 60.7069L162.988 66.6501L169.045 44.2619L188.826 49.5036L189.484 47.0225L167.23 41.1182Z" fill="#E4F427"/>
<path d="M172.23 56.1182L166.173 78.5064L143.746 72.5632L137.689 94.9514L115.272 89.0032L109.929 108.75L90.1482 103.508L84.0907 125.896L61.6646 119.953L55.6071 142.341L33.1897 136.393L27.1762 158.617L29.6623 159.284L35.0047 139.537L57.4221 145.485L63.4796 123.097L85.9057 129.04L91.9632 106.652L111.749 111.902L117.087 92.1469L139.504 98.0951L145.561 75.7069L167.988 81.6501L174.045 59.2619L193.826 64.5036L194.484 62.0225L172.23 56.1182Z" fill="#E4F427"/>
<path d="M179.286 72.0765L173.229 94.4647L150.803 88.5215L144.745 110.91L122.328 104.961L116.985 124.708L97.2043 119.466L91.1469 141.855L68.7208 135.911L62.6633 158.3L40.2458 152.351L34.2323 174.576L36.7185 175.242L42.0608 155.495L64.4783 161.443L70.5358 139.055L92.9619 144.998L99.0193 122.61L118.805 127.861L124.143 108.105L146.56 114.053L152.618 91.6652L175.044 97.6083L181.101 75.2201L200.882 80.4619L201.54 77.9807L179.286 72.0765Z" fill="#E4F427"/>
<path d="M186.286 89.0765L180.229 111.465L157.803 105.521L151.745 127.91L129.328 121.961L123.985 141.708L104.204 136.466L98.1469 158.855L75.7208 152.911L69.6633 175.3L47.2458 169.351L41.2323 191.576L43.7185 192.242L49.0608 172.495L71.4783 178.443L77.5358 156.055L99.9619 161.998L106.019 139.61L125.805 144.861L131.143 125.105L153.56 131.053L159.618 108.665L182.044 114.608L188.101 92.2201L207.882 97.4619L208.54 94.9807L186.286 89.0765Z" fill="#E4F427"/>
</svg>
