<svg width="96" height="88" viewBox="0 0 96 88" fill="none" xmlns="http://www.w3.org/2000/svg">
<g clip-path="url(#clip0_221_681)">
<path d="M87.0359 80.248C84.6368 81.3345 81.9663 81.6855 79.3655 81.2562L86.7377 51.5529C89.2362 52.6167 91.3833 54.3576 92.9337 56.5769C92.906 64.8192 90.8955 72.9353 87.0701 80.248H87.0359ZM75.9479 82.0949L75.4109 84.2468C75.3879 84.3614 75.3264 84.4648 75.2367 84.5402C75.1469 84.6156 75.0341 84.6585 74.9166 84.662H74.7802L68.8143 82.9675C68.6848 82.9176 68.5764 82.8249 68.5075 82.7049C68.4376 82.5753 68.4164 82.4251 68.4479 82.2813L77.7462 44.8599C77.7693 44.7454 77.8307 44.642 77.9204 44.5666C78.0102 44.4912 78.123 44.4483 78.2405 44.4448H78.3769L84.3428 46.1392C84.4767 46.1906 84.5875 46.2883 84.6548 46.4144C84.7221 46.5404 84.7414 46.6864 84.7092 46.8254L84.1723 48.9689L75.9479 82.0949ZM86.0899 27.4751L83.9081 29.017C75.6751 16.4105 62.3797 8.93809 48.0445 8.93809C33.9649 8.93809 20.8143 16.2072 12.5558 28.424L10.3996 26.8482L8.28596 25.2978C17.5076 11.5221 32.2604 3.33802 48.053 3.33802C64.1354 3.33802 79.0502 11.7508 88.2377 25.9247L86.0899 27.4751ZM9.30017 51.5529L16.6723 81.2562C14.0715 81.6845 11.4013 81.3335 9.00185 80.248C5.1734 72.9361 3.15998 64.8199 3.12967 56.5769C4.68407 54.358 6.83381 52.6173 9.33424 51.5529H9.30017ZM11.7377 46.1392L17.7036 44.4448H17.8314C17.9495 44.4493 18.0628 44.4925 18.1537 44.5675C18.2446 44.6426 18.3081 44.7453 18.3342 44.8599L27.624 82.2813C27.6533 82.4243 27.6354 82.5729 27.5729 82.7049C27.5024 82.8269 27.3906 82.9199 27.2575 82.9675L21.2916 84.662H21.1638C21.0457 84.6574 20.9324 84.6143 20.8415 84.5392C20.7506 84.4642 20.6871 84.3614 20.6609 84.2468L20.124 82.0949L11.8996 48.9774L11.3712 46.8254C11.3351 46.6862 11.3527 46.5386 11.4205 46.4117C11.4883 46.2847 11.6015 46.1875 11.7377 46.1392ZM89.0558 29.3474L91.2291 27.8055C91.5814 27.551 91.8223 27.1721 91.9024 26.7465C91.985 26.3157 91.9062 25.8697 91.6808 25.4926C82.0075 9.53114 65.6865 0 48.0359 0C30.6922 0 14.5331 9.27698 4.80868 24.8064C4.57746 25.1762 4.49217 25.6181 4.56929 26.0468C4.6464 26.4754 4.88045 26.8605 5.22628 27.1277L7.39104 28.7036C2.7052 36.8577 0.169897 46.0574 0.0208868 55.4471C-0.128123 64.8367 2.11401 74.1114 6.53876 82.4084C6.6915 82.6987 6.9333 82.9332 7.2291 83.0777C10.3906 84.649 13.9824 85.1488 17.4564 84.501L17.6098 85.111C17.7814 85.9134 18.2191 86.6352 18.8528 87.1606C19.4864 87.686 20.2793 87.9846 21.1041 88.0085C21.4186 88.0061 21.7312 87.9605 22.0331 87.8729L27.999 86.1361C28.4687 85.9973 28.9051 85.765 29.2816 85.4533C29.6581 85.1417 29.967 84.7571 30.1893 84.3231C30.6737 83.416 30.8043 82.3631 30.5559 81.3663L21.3172 43.9449C21.1442 43.1433 20.7061 42.4223 20.0728 41.8971C19.4394 41.3719 18.6473 41.0728 17.8229 41.0474C17.5057 41.0509 17.1904 41.0965 16.8854 41.183L10.9195 42.8774C9.96116 43.2003 9.16298 43.8745 8.68781 44.7625C8.21264 45.6506 8.09632 46.6854 8.36264 47.6557L8.50751 48.2657C6.60151 49.0268 4.84912 50.1231 3.33426 51.5021C3.97522 44.1208 6.2294 36.9676 9.93938 30.542L12.053 32.0839C12.2174 32.2048 12.4056 32.2899 12.6053 32.3337C12.805 32.3774 13.0117 32.3789 13.2121 32.3381C13.4162 32.2936 13.6091 32.2083 13.779 32.0874C13.949 31.9665 14.0925 31.8126 14.2007 31.6349C21.8115 19.4859 34.4507 12.2253 48.0189 12.2253C61.8257 12.2253 74.5928 19.6808 82.161 32.1687C82.2925 32.3953 82.4812 32.5839 82.7083 32.7161C82.9354 32.8483 83.1932 32.9195 83.4564 32.9227C83.7621 32.924 84.0604 32.8291 84.3086 32.6516L86.4479 31.1435C89.9424 37.4116 92.0764 44.3382 92.7121 51.4766C91.1899 50.1011 89.432 49.0078 87.5217 48.2488L87.6751 47.6388C87.9436 46.6684 87.8283 45.6326 87.3528 44.7441C86.8774 43.8556 86.0778 43.1816 85.1183 42.8605L79.1524 41.1661C78.8475 41.079 78.5322 41.0334 78.2149 41.0305C77.391 41.0573 76.5996 41.357 75.9665 41.8819C75.3335 42.4069 74.8949 43.127 74.7206 43.928L65.4308 81.3494C65.1824 82.3462 65.3129 83.3991 65.7973 84.3061C66.0197 84.7402 66.3285 85.1247 66.705 85.4364C67.0816 85.7481 67.518 85.9804 67.9877 86.1192L73.9536 87.856C74.2585 87.943 74.5738 87.9886 74.891 87.9915C75.7221 87.9717 76.5223 87.6743 77.1624 87.1471C77.8026 86.6199 78.2454 85.8936 78.4195 85.0856L78.5643 84.4756C82.0383 85.1234 85.6301 84.6236 88.7916 83.0523C89.0882 82.9059 89.3323 82.6722 89.4905 82.383C93.8572 74.1983 96.1034 65.0609 96.026 55.7967C95.9486 46.5325 93.5501 37.4335 89.0473 29.322" fill="#0A0935"/>
</g>
<defs>
<clipPath id="clip0_221_681">
<rect width="96" height="88" fill="white"/>
</clipPath>
</defs>
</svg>
