<svg width="88" height="88" viewBox="0 0 88 88" fill="none" xmlns="http://www.w3.org/2000/svg">
<g clip-path="url(#clip0_221_677)">
<path d="M39.1631 18.6398L42.6182 15.1848C42.9874 14.8166 43.4875 14.6099 44.0089 14.6099C44.5302 14.6099 45.0303 14.8166 45.3995 15.1848L48.8545 18.6398C48.9903 18.7767 49.1517 18.8853 49.3296 18.9594C49.5075 19.0335 49.6983 19.0717 49.8911 19.0717C50.181 19.071 50.4642 18.9845 50.705 18.8231C50.9458 18.6617 51.1335 18.4326 51.2443 18.1648C51.3552 17.8969 51.3842 17.6022 51.3278 17.3178C51.2715 17.0335 51.1322 16.7721 50.9276 16.5668L47.4725 13.1118C46.541 12.2246 45.3039 11.7297 44.0175 11.7297C42.7311 11.7297 41.494 12.2246 40.5624 13.1118L37.1074 16.5668C36.8586 16.8467 36.7262 17.2111 36.7372 17.5855C36.7482 17.9598 36.9019 18.3157 37.1667 18.5805C37.4315 18.8453 37.7874 18.999 38.1618 19.01C38.5361 19.021 38.9005 18.8886 39.1804 18.6398" fill="#0A0935"/>
<path d="M85.0629 56.2829C77.1076 51.5581 66.4833 50.0724 56.8092 48.8632C56.8524 47.5848 56.8956 46.3151 56.9388 45.0626C57.1116 39.9751 57.1806 35.423 57.1979 32.374L85.0629 49.5628V56.2829ZM63.0629 27.1396C63.0629 26.5554 63.2949 25.9952 63.708 25.5821C64.121 25.1691 64.6813 24.937 65.2654 24.937C65.8496 24.937 66.4099 25.1691 66.8229 25.5821C67.236 25.9952 67.468 26.5554 67.468 27.1396V34.0497L63.0629 31.0611V27.1396ZM76.2611 37.4011C76.2423 37.1008 76.2852 36.7999 76.3871 36.5168C76.4891 36.2337 76.648 35.9746 76.8539 35.7553C77.0599 35.536 77.3086 35.3612 77.5847 35.2417C77.8609 35.1222 78.1585 35.0606 78.4594 35.0606C78.7602 35.0606 79.0579 35.1222 79.3341 35.2417C79.6102 35.3612 79.8589 35.536 80.0649 35.7553C80.2708 35.9746 80.4297 36.2337 80.5317 36.5168C80.6336 36.7999 80.6765 37.1008 80.6577 37.4011V43.0155L76.2611 40.0183V37.4011ZM60.1261 80.5114V84.692L44.8634 79.5094C44.5935 79.3812 44.2985 79.3147 43.9997 79.3147C43.7008 79.3147 43.4058 79.3812 43.1359 79.5094L27.8646 84.692V80.5114L43.991 72.012L60.1261 80.5114ZM33.7295 23.5032C33.6653 19.1532 34.4883 14.8358 36.1481 10.8145C37.7806 7.01394 41.0888 2.97155 43.991 2.97155C46.8932 2.97155 50.2101 7.01394 51.8426 10.8145C53.5033 14.8386 54.3263 19.159 54.2611 23.5118C54.2611 23.5809 54.2611 24.9284 54.2611 27.1482V27.3555C54.2611 31.6743 54.1834 39.1027 53.9156 47.1789L53.7861 50.107V51.1694C53.4578 58.9433 52.9223 66.9417 52.0585 72.9621L45.4594 69.5071L45.2348 69.3862C45.1127 69.3063 44.9824 69.2397 44.8461 69.1875C44.5914 69.0764 44.3165 69.0191 44.0385 69.0191C43.7606 69.0191 43.4857 69.0764 43.2309 69.1875C43.0869 69.2443 42.9482 69.3137 42.8163 69.3948L36.0012 72.9881C35.1375 67.054 34.5933 59.1679 34.2737 51.4977L34.2046 50.1329C34.1528 49.1482 34.1096 48.1722 34.0664 47.2048C33.7986 39.1286 33.7382 31.6571 33.7295 27.3814V27.1741C33.7295 24.9543 33.7295 23.5982 33.7295 23.5291V23.5032ZM2.93644 56.352V49.6319L30.7927 32.4431C30.7927 35.4922 30.8791 40.0528 31.0605 45.1404C31.0605 46.3842 31.1383 47.6539 31.1814 48.9323C21.5332 50.1329 10.8917 51.6186 2.93644 56.352ZM7.33298 37.4702C7.31415 37.1699 7.35706 36.8689 7.45901 36.5859C7.56097 36.3028 7.71982 36.0437 7.92579 35.8244C8.13177 35.6051 8.3805 35.4303 8.65662 35.3108C8.93274 35.1914 9.23041 35.1297 9.53127 35.1297C9.83213 35.1297 10.1298 35.1914 10.4059 35.3108C10.682 35.4303 10.9308 35.6051 11.1367 35.8244C11.3427 36.0437 11.5016 36.3028 11.6035 36.5859C11.7055 36.8689 11.7484 37.1699 11.7295 37.4702V40.0615L7.33298 43.0587V37.4702ZM20.5313 27.2087C20.5124 26.9084 20.5553 26.6075 20.6573 26.3244C20.7592 26.0413 20.9181 25.7822 21.1241 25.5629C21.33 25.3436 21.5788 25.1688 21.8549 25.0493C22.131 24.9299 22.4287 24.8682 22.7295 24.8682C23.0304 24.8682 23.3281 24.9299 23.6042 25.0493C23.8803 25.1688 24.129 25.3436 24.335 25.5629C24.541 25.7822 24.6998 26.0413 24.8018 26.3244C24.9037 26.6075 24.9466 26.9084 24.9278 27.2087V31.1042L20.5313 34.0929V27.2087ZM86.6867 47.1875L83.5945 45.2872V37.4702C83.5401 36.1447 82.9753 34.8916 82.0182 33.973C81.0612 33.0544 79.786 32.5414 78.4594 32.5414C77.1328 32.5414 75.8576 33.0544 74.9006 33.973C73.9435 34.8916 73.3787 36.1447 73.3243 37.4702V38.8608L70.3962 37.0469V27.1396C70.3418 25.8141 69.777 24.561 68.82 23.6424C67.8629 22.7238 66.5877 22.2109 65.2611 22.2109C63.9345 22.2109 62.6594 22.7238 61.7023 23.6424C60.7452 24.561 60.1805 25.8141 60.1261 27.1396V30.7328L57.1979 28.9276C57.1979 25.818 57.1979 23.7968 57.1979 23.4686C57.257 18.7292 56.3519 14.0272 54.5375 9.64841C53.1123 6.32293 49.0699 0.026123 43.991 0.026123C38.9121 0.026123 34.887 6.32293 33.4531 9.64841C31.6413 14.0277 30.7391 18.7297 30.8014 23.4686C30.8014 23.7968 30.8014 25.8267 30.8014 28.9362L27.83 30.7328V27.1396C27.7757 25.8141 27.2109 24.561 26.2538 23.6424C25.2968 22.7238 24.0216 22.2109 22.695 22.2109C21.3684 22.2109 20.0932 22.7238 19.1362 23.6424C18.1791 24.561 17.6143 25.8141 17.5599 27.1396V37.0642L14.6318 38.8781V37.4011C14.5774 36.0756 14.0126 34.8225 13.0556 33.9039C12.0985 32.9853 10.8233 32.4723 9.49671 32.4723C8.17013 32.4723 6.89495 32.9853 5.93789 33.9039C4.98082 34.8225 4.41602 36.0756 4.36164 37.4011V45.2181L1.26939 47.1184C0.876737 47.3286 0.548216 47.6411 0.318616 48.0228C0.0890155 48.4044 -0.0331306 48.841 -0.0348968 49.2864V57.2071C-0.0360337 57.5277 0.0261393 57.8454 0.148041 58.1419C0.269942 58.4384 0.449177 58.708 0.675476 58.9351C0.901775 59.1622 1.17068 59.3424 1.46677 59.4653C1.76286 59.5883 2.08031 59.6516 2.40092 59.6516C2.62235 59.6484 2.84266 59.6194 3.05738 59.5652L3.46335 59.3752C10.9003 54.5467 21.5505 53.0179 31.2678 51.8086C31.5088 59.3576 32.1489 66.8886 33.1854 74.37L25.8693 78.2311L25.5583 78.447C25.3492 78.6376 25.1821 78.8697 25.0676 79.1285C24.9531 79.3872 24.8937 79.667 24.8933 79.95V85.9963C24.893 86.3442 24.9819 86.6865 25.1514 86.9904C25.3208 87.2943 25.5653 87.5497 25.8614 87.7324C26.1575 87.9151 26.4955 88.019 26.8431 88.0341C27.1907 88.0492 27.5364 87.9751 27.8473 87.8188L43.9565 82.3339L60.0742 87.8188C60.3639 87.9688 60.6853 88.047 61.0114 88.047C61.3376 88.047 61.659 87.9688 61.9486 87.8188C62.2744 87.6452 62.5469 87.3863 62.7371 87.0699C62.9272 86.7535 63.0279 86.3914 63.0283 86.0222V79.9759C63.0274 79.6938 62.9686 79.4149 62.8557 79.1564C62.7428 78.8979 62.5781 78.6653 62.3718 78.4729L54.7276 74.4305C55.7825 66.9328 56.4399 59.3845 56.6969 51.8172C66.3797 53.0265 77.0471 54.5467 84.4928 59.3838L84.8987 59.5738C85.1136 59.6274 85.3338 59.6564 85.5552 59.6602C85.8758 59.6602 86.1932 59.5969 86.4893 59.474C86.7854 59.351 87.0543 59.1708 87.2806 58.9437C87.5069 58.7166 87.6862 58.4471 87.8081 58.1506C87.93 57.854 87.9921 57.5364 87.991 57.2158V49.2951C87.9892 48.8497 87.8671 48.413 87.6375 48.0314C87.4079 47.6497 87.0794 47.3373 86.6867 47.127" fill="#0A0935"/>
</g>
<defs>
<clipPath id="clip0_221_677">
<rect width="88" height="88" fill="white"/>
</clipPath>
</defs>
</svg>
