<svg width="65" height="66" viewBox="0 0 65 66" fill="none" xmlns="http://www.w3.org/2000/svg">
<path d="M57.4656 64.0064H65L57.4656 56.4719V64.0064Z" fill="#E4F427"/>
<path d="M46.1677 52.7168H53.7103L46.1677 45.1824V52.7168Z" fill="#E4F427"/>
<path d="M34.8784 41.4192H42.4129L34.8784 33.8848V41.4192Z" fill="#E4F427"/>
<path d="M23.5808 30.1216H31.1153L23.5808 22.5872V30.1216Z" fill="#E4F427"/>
<path d="M12.2915 18.8321H19.826L12.2915 11.2976V18.8321Z" fill="#E4F427"/>
<path d="M0.993652 7.53446H8.52811L0.993652 0V7.53446Z" fill="#E4F427"/>
<path d="M34.634 64.2508H42.1766L34.634 56.7163V64.2508Z" fill="#E4F427"/>
<path d="M23.3445 52.9532H30.8789L23.3445 45.4187V52.9532Z" fill="#E4F427"/>
<path d="M12.0471 41.6553H19.5816L12.0471 34.1208V41.6553Z" fill="#E4F427"/>
<path d="M0.757324 30.366H8.29178L0.757324 22.8315V30.366Z" fill="#E4F427"/>
<path d="M11.8108 64.4868H19.3452L11.8108 56.9524V64.4868Z" fill="#E4F427"/>
<path d="M0.513184 53.1892H8.04764L0.513184 45.6548V53.1892Z" fill="#E4F427"/>
<path d="M45.7197 64.4544H53.2542L45.7197 56.9199V64.4544Z" fill="#E4F427"/>
<path d="M34.4304 53.1648H41.9649L34.4304 45.6304V53.1648Z" fill="#E4F427"/>
<path d="M23.1328 41.8672H30.6673L23.1328 34.3328V41.8672Z" fill="#E4F427"/>
<path d="M11.8433 30.5777H19.3777L11.8433 23.0352V30.5777Z" fill="#E4F427"/>
<path d="M0.545654 19.2801H8.08011L0.545654 11.7456V19.2801Z" fill="#E4F427"/>
<path d="M23.2224 64.3648H30.7569L23.2224 56.8303V64.3648Z" fill="#E4F427"/>
<path d="M11.9329 53.0755H19.4673L11.9329 45.541V53.0755Z" fill="#E4F427"/>
<path d="M0.635254 41.7776H8.16971L0.635254 34.2432V41.7776Z" fill="#E4F427"/>
<path d="M0 65.0082H7.53446L0 57.4656V65.0082Z" fill="#E4F427"/>
</svg>
